<svg enable-background="new -24.999 -1 350 12" height="12" viewBox="-24.999 -1 350 12" width="350" xmlns="http://www.w3.org/2000/svg"><path d="m-24.999-.666h350v11.666h-350z" fill="#dce3ec"/><g fill="#63789c"><path d="m-20.485 2.167h10.188v6h-10.188z"/><path d="m-6.109 2.167h10.188v6h-10.188z"/><path d="m8.268 2.167h10.188v6h-10.188z"/><path d="m22.645 2.167h10.188v6h-10.188z"/><path d="m37.021 2.167h10.188v6h-10.188z"/><path d="m51.398 2.167h10.188v6h-10.188z"/><path d="m65.774 2.167h10.188v6h-10.188z"/><path d="m80.151 2.167h10.188v6h-10.188z"/><path d="m94.527 2.167h10.188v6h-10.188z"/><path d="m108.904 2.167h10.188v6h-10.188z"/><path d="m123.281 2.167h10.188v6h-10.188z"/><path d="m137.657 2.167h10.188v6h-10.188z"/><path d="m152.033 2.167h10.189v6h-10.189z"/><path d="m166.411 2.167h10.188v6h-10.188z"/><path d="m180.787 2.167h10.188v6h-10.188z"/><path d="m195.163 2.167h10.188v6h-10.188z"/><path d="m209.54 2.167h10.188v6h-10.188z"/><path d="m223.916 2.167h10.189v6h-10.189z"/><path d="m238.293 2.167h10.188v6h-10.188z"/><path d="m252.67 2.167h10.188v6h-10.188z"/><path d="m267.046 2.167h10.188v6h-10.188z"/><path d="m281.423 2.167h10.188v6h-10.188z"/><path d="m295.799 2.167h10.188v6h-10.188z"/><path d="m310.176 2.167h10.188v6h-10.188z"/></g></svg>